<?xml version="1.0" encoding="utf-8"?>
<!-- Generator: Adobe Illustrator 25.4.1, SVG Export Plug-In . SVG Version: 6.00 Build 0)  -->
<svg version="1.1" id="Layer_1" xmlns="http://www.w3.org/2000/svg" xmlns:xlink="http://www.w3.org/1999/xlink" x="0px" y="0px"
	 viewBox="0 0 56.7 57.8" style="enable-background:new 0 0 56.7 57.8;" xml:space="preserve">
<style type="text/css">
	.st0{fill:none;stroke:#000000;stroke-width:3;stroke-miterlimit:10;}
</style>
<circle class="st0" cx="28.3" cy="28.9" r="23.2"/>
<path d="M44.7,19.7c-1.2,0.5-2.5,0.9-3.9,1.1c1.4-0.8,2.5-2.2,3-3.7c-1.3,0.8-2.8,1.3-4.3,1.6C37,16,32.7,15.9,30,18.4
	c-1.4,1.3-2.1,3-2.1,4.9c0,0.5,0,1,0.2,1.5c-5.4-0.3-10.4-2.8-13.9-7c-1.8,3.1-0.9,7,2.1,9c-1.1,0-2.1-0.3-3-0.8l0,0
	c0,3.2,2.3,6,5.4,6.6c-0.6,0.2-1.2,0.2-1.8,0.2c-0.4,0-0.9,0-1.3-0.1c0.9,2.7,3.4,4.6,6.3,4.7c-2.4,1.9-5.3,2.9-8.3,2.9
	c-0.6,0-1.1,0-1.6-0.1c3.1,2,6.7,3,10.3,3c12.4,0,19.1-10.2,19.1-19.1c0-0.3,0-0.6,0-0.9C42.7,22.3,43.8,21.1,44.7,19.7z"/>
</svg>
