<?xml version="1.0" encoding="utf-8"?>
<!-- Generator: Adobe Illustrator 25.4.1, SVG Export Plug-In . SVG Version: 6.00 Build 0)  -->
<svg version="1.1" id="Layer_1" xmlns="http://www.w3.org/2000/svg" xmlns:xlink="http://www.w3.org/1999/xlink" x="0px" y="0px"
	 viewBox="0 0 56.7 57.8" style="enable-background:new 0 0 56.7 57.8;" xml:space="preserve">
<style type="text/css">
	.st0{fill:none;stroke:#000000;stroke-width:3;stroke-miterlimit:10;}
	.st1{fill-rule:evenodd;clip-rule:evenodd;}
</style>
<circle class="st0" cx="28.3" cy="28.9" r="23.2"/>
<path class="st1" d="M28.6,26.9v4.9h8.1c-0.3,2.1-2.5,6.2-8.1,6.2c-4.9,0-8.9-4-8.9-9s4-9,8.9-9c2.8,0,4.6,1.2,5.7,2.2l3.9-3.7
	c-2.5-2.3-5.7-3.7-9.6-3.7c-7.9,0-14.3,6.4-14.3,14.3s6.4,14.3,14.3,14.3c8.3,0,13.7-5.8,13.7-14c0-0.9-0.1-1.7-0.2-2.4L28.6,26.9
	L28.6,26.9L28.6,26.9z"/>
</svg>
